<?xml version="1.0" standalone="no"?><!DOCTYPE svg PUBLIC "-//W3C//DTD SVG 1.1//EN" "http://www.w3.org/Graphics/SVG/1.1/DTD/svg11.dtd"><svg t="1621604288472" class="icon" viewBox="0 0 1638 1024" version="1.1" xmlns="http://www.w3.org/2000/svg" p-id="18429" xmlns:xlink="http://www.w3.org/1999/xlink" width="51.1875" height="32"><defs><style type="text/css"></style></defs><path d="M948.224 976.896h-872.96c-39.936 0-72.192-32.256-72.192-72.192v-256.512l26.112 0.512h2.56c74.24 0 135.168-61.44 135.168-136.704s-60.416-136.192-135.168-136.704h-2.56l-26.112 0.512v-256.512c0-39.936 32.256-72.192 72.192-72.192h872.96c39.936 0 72.192 32.256 72.192 72.192v256h-25.6c-74.752 0-135.68 61.44-135.68 136.704s60.928 136.704 135.68 136.704h25.6v256c0 39.424-32.256 72.192-72.192 72.192z m-893.44-278.528V904.704c0 11.776 9.216 20.992 20.992 20.992h872.96c11.264 0 20.992-9.728 20.992-20.992v-206.848c-90.624-12.8-161.28-91.136-161.28-185.856 0-94.72 70.144-173.568 161.28-185.856v-206.848c0-11.776-9.216-20.992-20.992-20.992h-872.96c-11.264 0-20.992 9.728-20.992 20.992v206.336c92.16 11.264 163.328 90.624 163.328 186.368s-71.168 174.592-163.328 186.368z" fill="#00a2ff" p-id="18430"></path><path d="M669.696 796.672h-315.904c-14.336 0-25.6-11.264-25.6-25.6s11.264-25.6 25.6-25.6h315.904c14.336 0 25.6 11.264 25.6 25.6s-11.264 25.6-25.6 25.6zM512 459.776c-62.976 0-113.664-51.2-113.664-114.176s51.2-114.176 113.664-114.176c62.976 0 113.664 51.2 113.664 114.176s-50.688 114.176-113.664 114.176z m0-177.664c-34.304 0-62.464 28.16-62.464 62.976s28.16 62.976 62.464 62.976 62.464-28.16 62.464-62.976-28.16-62.976-62.464-62.976z" fill="#00a2ff" p-id="18431"></path><path d="M669.696 605.696c-14.336 0-25.6-11.264-25.6-25.6 0-66.56-59.392-120.32-132.096-120.32s-132.096 54.272-132.096 120.32c0 14.336-11.264 25.6-25.6 25.6s-25.6-11.264-25.6-25.6c0-94.72 82.432-171.52 183.296-171.52 101.376 0 183.296 76.8 183.296 171.52 0 14.336-11.264 25.6-25.6 25.6z" fill="#00a2ff" p-id="18432"></path></svg>